<svg width="168" height="32" viewBox="0 0 168 32" fill="none" xmlns="http://www.w3.org/2000/svg">
<path d="M50.5601 9.02406H53.0987V21.5467H58.4961V23.4667H50.5601V9.02406Z" fill="#4E2F00"/>
<path d="M62.1309 23.5521C61.3771 23.5521 60.8011 23.3316 60.4029 22.8907C60.0047 22.4356 59.8056 21.8525 59.8056 21.1414V12.8427H62.2376V20.9281C62.2376 21.2552 62.2873 21.4756 62.3869 21.5894C62.4865 21.7032 62.6358 21.7601 62.8349 21.7601C62.8918 21.7601 62.9487 21.7601 63.0056 21.7601C63.0767 21.7601 63.1407 21.753 63.1976 21.7387C63.2545 21.7387 63.3184 21.7316 63.3896 21.7174L63.6456 23.2534C63.546 23.3103 63.418 23.3601 63.2616 23.4027C63.1336 23.4454 62.97 23.481 62.7709 23.5094C62.586 23.5378 62.3727 23.5521 62.1309 23.5521ZM61.0642 8.10673C61.5193 8.10673 61.8678 8.24184 62.1096 8.51206C62.3513 8.78228 62.4722 9.13073 62.4722 9.5574C62.4722 9.98406 62.3442 10.3396 62.0882 10.6241C61.8465 10.9085 61.4838 11.0507 61.0002 11.0507C60.5451 11.0507 60.1896 10.9156 59.9336 10.6454C59.6918 10.361 59.5709 10.0196 59.5709 9.6214C59.5709 9.18051 59.6918 8.81784 59.9336 8.5334C60.1896 8.24895 60.5664 8.10673 61.0642 8.10673Z" fill="#4E2F00"/>
<path d="M69.5732 12.5867C71.2088 12.5867 72.3963 13.0703 73.1359 14.0374C73.8755 15.0045 74.2452 16.3343 74.2452 18.0267C74.2452 18.8232 74.1457 19.5698 73.9466 20.2667C73.7475 20.9494 73.4417 21.5467 73.0292 22.0587C72.631 22.5565 72.1261 22.9547 71.5146 23.2534C70.903 23.5378 70.1919 23.6801 69.3812 23.6801C68.5706 23.6801 67.8666 23.5592 67.2692 23.3174C66.6861 23.0614 66.2026 22.6987 65.8186 22.2294C65.4346 21.7601 65.1501 21.1912 64.9652 20.5227C64.7946 19.8543 64.7092 19.1005 64.7092 18.2614C64.7092 17.4507 64.8088 16.7041 65.0079 16.0214C65.207 15.3245 65.5057 14.7272 65.9039 14.2294C66.3163 13.7174 66.8283 13.3192 67.4399 13.0347C68.0515 12.7361 68.7626 12.5867 69.5732 12.5867ZM69.3599 14.3787C68.9475 14.3787 68.6061 14.4712 68.3359 14.6561C68.0799 14.841 67.8737 15.1041 67.7172 15.4454C67.575 15.7725 67.4755 16.1636 67.4186 16.6187C67.3617 17.0596 67.3332 17.5361 67.3332 18.0481C67.3332 18.5743 67.3617 19.0721 67.4186 19.5414C67.4897 20.0107 67.6106 20.4232 67.7812 20.7787C67.9519 21.1201 68.1795 21.3903 68.4639 21.5894C68.7626 21.7885 69.1395 21.8881 69.5946 21.8881C70.007 21.8881 70.3412 21.7956 70.5972 21.6107C70.8675 21.4258 71.0737 21.1698 71.2159 20.8427C71.3723 20.5014 71.479 20.1103 71.5359 19.6694C71.5928 19.2285 71.6212 18.7521 71.6212 18.2401C71.6212 17.7138 71.5857 17.2161 71.5146 16.7467C71.4577 16.2774 71.3439 15.865 71.1732 15.5094C71.0026 15.1538 70.7679 14.8765 70.4692 14.6774C70.1848 14.4783 69.815 14.3787 69.3599 14.3787Z" fill="#4E2F00"/>
<path d="M82.9834 23.4667V16.5761C82.9834 15.9787 82.8767 15.5023 82.6634 15.1467C82.4501 14.777 82.0874 14.5921 81.5754 14.5921C81.2483 14.5921 80.9283 14.6774 80.6154 14.8481C80.3167 15.0045 80.0465 15.2392 79.8047 15.5521C79.563 15.865 79.3638 16.249 79.2074 16.7041C79.0652 17.145 78.9941 17.6427 78.9941 18.1974V23.4667H76.5621V18.0907C76.5621 17.2374 76.5052 16.5263 76.3914 15.9574C76.2776 15.3743 76.1567 14.905 76.0287 14.5494C75.8723 14.137 75.7016 13.8027 75.5167 13.5467L77.4367 12.7787C77.579 12.9352 77.7212 13.1272 77.8634 13.3547C77.9772 13.5538 78.091 13.8027 78.2047 14.1014C78.3185 14.3858 78.411 14.713 78.4821 15.0827C78.8518 14.2294 79.3852 13.6178 80.0821 13.2481C80.779 12.8641 81.5114 12.6721 82.2794 12.6721C83.3745 12.6721 84.1638 13.0063 84.6474 13.6747C85.1452 14.329 85.3941 15.2178 85.3941 16.3414V23.4667H82.9834Z" fill="#4E2F00"/>
<path d="M92.1367 8.83206C92.6345 8.83206 93.111 8.88184 93.5661 8.9814C94.0212 9.06673 94.4336 9.1734 94.8034 9.3014C95.1874 9.41517 95.5074 9.53606 95.7634 9.66406C96.0336 9.79206 96.2185 9.89162 96.3181 9.96273L95.2727 11.7974L94.9954 11.6481C94.8105 11.5485 94.5687 11.4347 94.2701 11.3067C93.9714 11.1787 93.6443 11.065 93.2887 10.9654C92.9332 10.8658 92.5918 10.8161 92.2647 10.8161C91.7527 10.8161 91.3047 10.937 90.9207 11.1787C90.551 11.4205 90.3661 11.7974 90.3661 12.3094C90.3661 12.9494 90.5723 13.4756 90.9847 13.8881C91.3972 14.2863 92.0443 14.6561 92.9261 14.9974C93.495 15.225 93.9998 15.4667 94.4407 15.7227C94.8958 15.9645 95.2798 16.249 95.5927 16.5761C95.9056 16.9032 96.1403 17.2801 96.2967 17.7067C96.4674 18.1334 96.5527 18.6454 96.5527 19.2427C96.5527 19.7832 96.4461 20.3165 96.2327 20.8427C96.0336 21.369 95.7278 21.8383 95.3154 22.2507C94.9172 22.649 94.4194 22.9761 93.8221 23.2321C93.2247 23.4738 92.535 23.5947 91.7527 23.5947C91.1981 23.5947 90.6718 23.5378 90.1741 23.4241C89.6763 23.3103 89.2212 23.1823 88.8087 23.0401C88.4105 22.8836 88.0621 22.7272 87.7634 22.5707C87.479 22.4143 87.2656 22.2934 87.1234 22.2081L88.0194 20.2454L88.4034 20.4587C88.6594 20.601 88.9723 20.7574 89.3421 20.9281C89.7118 21.0987 90.103 21.2552 90.5154 21.3974C90.9278 21.5396 91.2834 21.6107 91.5821 21.6107C92.3358 21.6107 92.8976 21.4258 93.2674 21.0561C93.6372 20.6863 93.8221 20.1672 93.8221 19.4987C93.8221 19.1858 93.7723 18.9156 93.6727 18.6881C93.5732 18.4463 93.431 18.2401 93.2461 18.0694C93.0612 17.8987 92.8336 17.7494 92.5634 17.6214C92.3074 17.4792 92.0158 17.3441 91.6887 17.2161C91.0487 16.9458 90.4727 16.6756 89.9607 16.4054C89.463 16.1352 89.0363 15.8294 88.6807 15.4881C88.3252 15.1325 88.055 14.7343 87.8701 14.2934C87.6852 13.8383 87.5927 13.2978 87.5927 12.6721C87.5927 12.1458 87.7065 11.6552 87.9341 11.2001C88.1616 10.7307 88.4745 10.3254 88.8727 9.98406C89.271 9.62851 89.7474 9.35117 90.3021 9.15206C90.8567 8.93873 91.4683 8.83206 92.1367 8.83206Z" fill="#4E2F00"/>
<path d="M100.944 23.5521C100.133 23.5521 99.5359 23.3316 99.1519 22.8907C98.7679 22.4356 98.5759 21.8596 98.5759 21.1627V8.42673L101.008 7.97873V20.9281C101.008 21.2552 101.072 21.4827 101.2 21.6107C101.328 21.7387 101.513 21.8027 101.755 21.8027C101.897 21.8027 102.032 21.7956 102.16 21.7814C102.302 21.7672 102.43 21.7458 102.544 21.7174C102.672 21.689 102.786 21.6605 102.885 21.6321L103.184 23.1681C102.999 23.2392 102.793 23.3032 102.565 23.3601C102.366 23.417 102.131 23.4596 101.861 23.4881C101.591 23.5307 101.285 23.5521 100.944 23.5521Z" fill="#4E2F00"/>
<path d="M108.802 12.5867C110.438 12.5867 111.626 13.0703 112.365 14.0374C113.105 15.0045 113.474 16.3343 113.474 18.0267C113.474 18.8232 113.375 19.5698 113.176 20.2667C112.977 20.9494 112.671 21.5467 112.258 22.0587C111.86 22.5565 111.355 22.9547 110.744 23.2534C110.132 23.5378 109.421 23.6801 108.61 23.6801C107.8 23.6801 107.096 23.5592 106.498 23.3174C105.915 23.0614 105.432 22.6987 105.048 22.2294C104.664 21.7601 104.379 21.1912 104.194 20.5227C104.024 19.8543 103.938 19.1005 103.938 18.2614C103.938 17.4507 104.038 16.7041 104.237 16.0214C104.436 15.3245 104.735 14.7272 105.133 14.2294C105.546 13.7174 106.058 13.3192 106.669 13.0347C107.281 12.7361 107.992 12.5867 108.802 12.5867ZM108.589 14.3787C108.177 14.3787 107.835 14.4712 107.565 14.6561C107.309 14.841 107.103 15.1041 106.946 15.4454C106.804 15.7725 106.705 16.1636 106.648 16.6187C106.591 17.0596 106.562 17.5361 106.562 18.0481C106.562 18.5743 106.591 19.0721 106.648 19.5414C106.719 20.0107 106.84 20.4232 107.01 20.7787C107.181 21.1201 107.409 21.3903 107.693 21.5894C107.992 21.7885 108.369 21.8881 108.824 21.8881C109.236 21.8881 109.57 21.7956 109.826 21.6107C110.097 21.4258 110.303 21.1698 110.445 20.8427C110.602 20.5014 110.708 20.1103 110.765 19.6694C110.822 19.2285 110.85 18.7521 110.85 18.2401C110.85 17.7138 110.815 17.2161 110.744 16.7467C110.687 16.2774 110.573 15.865 110.402 15.5094C110.232 15.1538 109.997 14.8765 109.698 14.6774C109.414 14.4783 109.044 14.3787 108.589 14.3787Z" fill="#4E2F00"/>
<path d="M114.426 12.8427H116.346L116.773 10.3467L118.778 9.89873V12.8427H121.402L121.103 14.5707H118.778V20.8854C118.778 21.2552 118.877 21.497 119.077 21.6107C119.276 21.7103 119.496 21.7601 119.738 21.7601C119.937 21.7601 120.136 21.7458 120.335 21.7174C120.534 21.689 120.712 21.6534 120.869 21.6107C121.053 21.5681 121.231 21.5183 121.402 21.4614L121.807 23.0614L121.615 23.1254C121.487 23.1823 121.295 23.2463 121.039 23.3174C120.797 23.3743 120.506 23.4241 120.165 23.4667C119.837 23.5236 119.475 23.5521 119.077 23.5521C118.678 23.5521 118.309 23.5094 117.967 23.4241C117.64 23.3387 117.356 23.2036 117.114 23.0187C116.872 22.8196 116.68 22.5707 116.538 22.2721C116.41 21.9734 116.346 21.6036 116.346 21.1627V14.5707H114.426V12.8427Z" fill="#4E2F00"/>
<path d="M126.444 12.5867C126.856 12.5867 127.261 12.6294 127.66 12.7147C128.058 12.8001 128.413 12.8996 128.726 13.0134C129.096 13.1414 129.437 13.2765 129.75 13.4187L129.025 15.0827C128.74 14.9547 128.456 14.841 128.172 14.7414C127.93 14.6561 127.66 14.5778 127.361 14.5067C127.076 14.4214 126.792 14.3787 126.508 14.3787C126.18 14.3787 125.896 14.457 125.654 14.6134C125.427 14.7698 125.313 15.0045 125.313 15.3174C125.313 16.1281 125.903 16.761 127.084 17.2161C127.524 17.3867 127.923 17.5716 128.278 17.7707C128.634 17.9556 128.932 18.1761 129.174 18.4321C129.43 18.6881 129.622 18.9867 129.75 19.3281C129.878 19.6552 129.942 20.0463 129.942 20.5014C129.942 20.8996 129.857 21.2907 129.686 21.6747C129.53 22.0587 129.288 22.4001 128.961 22.6987C128.648 22.9974 128.257 23.2392 127.788 23.4241C127.332 23.5947 126.813 23.6801 126.23 23.6801C125.761 23.6801 125.299 23.6232 124.844 23.5094C124.388 23.4098 123.976 23.2961 123.606 23.1681C123.251 23.0401 122.966 22.9192 122.753 22.8054L122.433 22.6561L123.222 20.8641L123.5 21.0134C123.684 21.1272 123.919 21.2481 124.204 21.3761C124.488 21.5041 124.794 21.625 125.121 21.7387C125.448 21.8383 125.747 21.8881 126.017 21.8881C126.515 21.8881 126.884 21.7885 127.126 21.5894C127.368 21.3903 127.489 21.1272 127.489 20.8001C127.489 20.4303 127.354 20.0961 127.084 19.7974C126.828 19.4845 126.436 19.2285 125.91 19.0294C124.815 18.617 124.026 18.1476 123.542 17.6214C123.073 17.0952 122.838 16.4125 122.838 15.5734C122.838 15.1752 122.931 14.7983 123.116 14.4427C123.3 14.073 123.549 13.753 123.862 13.4827C124.189 13.1983 124.573 12.9778 125.014 12.8214C125.455 12.665 125.932 12.5867 126.444 12.5867Z" fill="#4E2F00"/>
<path d="M141.358 16.8747C141.258 16.5618 141.166 16.2418 141.08 15.9147C141.009 15.5876 140.938 15.2747 140.867 14.976C140.81 14.6774 140.753 14.4071 140.696 14.1654C140.654 13.9236 140.611 13.7316 140.568 13.5894C140.54 13.7316 140.497 13.9378 140.44 14.208C140.384 14.4783 140.32 14.7698 140.248 15.0827C140.192 15.3956 140.128 15.7156 140.056 16.0427C139.985 16.3698 139.907 16.6685 139.822 16.9387L137.795 23.4667H134.958L130.947 9.02403H134.446L135.811 14.4427C135.896 14.7698 135.975 15.1111 136.046 15.4667C136.117 15.8223 136.188 16.1849 136.259 16.5547C136.33 16.9103 136.394 17.2587 136.451 17.6C136.508 17.9271 136.558 18.2187 136.6 18.4747C136.714 17.9485 136.849 17.3156 137.006 16.576C137.176 15.8223 137.361 15.1183 137.56 14.464L139.182 9.02403H142.04L143.704 14.5067C143.946 15.2889 144.131 16.0356 144.259 16.7467C144.401 17.4436 144.529 18.048 144.643 18.56C144.714 18.048 144.807 17.4436 144.92 16.7467C145.034 16.0498 145.191 15.296 145.39 14.4854L146.734 9.02403H150.275L146.264 23.4667H143.427L141.358 16.8747Z" fill="#F0AA41"/>
<path d="M154.096 23.552C153.285 23.552 152.631 23.3458 152.133 22.9334C151.636 22.5067 151.387 21.9094 151.387 21.1414V12.7574H154.757V20.1814C154.757 20.5085 154.807 20.7289 154.907 20.8427C155.006 20.9565 155.156 21.0134 155.355 21.0134C155.469 21.0134 155.582 21.0063 155.696 20.992C155.81 20.9636 155.881 20.9423 155.909 20.928L156.208 23.04C156.194 23.0543 156.13 23.0898 156.016 23.1467C155.902 23.1894 155.753 23.2463 155.568 23.3174C155.383 23.3743 155.163 23.424 154.907 23.4667C154.651 23.5236 154.381 23.552 154.096 23.552ZM153.115 7.61603C153.712 7.61603 154.167 7.79381 154.48 8.14936C154.793 8.50492 154.949 8.95292 154.949 9.49336C154.949 10.048 154.786 10.5103 154.459 10.88C154.146 11.2498 153.669 11.4347 153.029 11.4347C152.432 11.4347 151.97 11.2569 151.643 10.9014C151.33 10.5316 151.173 10.0978 151.173 9.60003C151.173 9.03114 151.337 8.56181 151.664 8.19203C151.991 7.80803 152.475 7.61603 153.115 7.61603Z" fill="#F0AA41"/>
<path d="M163.742 23.4667V16.8107C163.742 16.3129 163.678 15.9147 163.55 15.616C163.436 15.3031 163.216 15.1467 162.889 15.1467C162.491 15.1467 162.121 15.4098 161.779 15.936C161.438 16.448 161.267 17.1734 161.267 18.112V23.4667H157.897V17.92C157.897 17.0667 157.833 16.3627 157.705 15.808C157.591 15.2391 157.456 14.7769 157.299 14.4214C157.129 14.0231 156.937 13.7031 156.723 13.4614L159.433 12.608C159.561 12.7503 159.689 12.9138 159.817 13.0987C159.931 13.2551 160.037 13.4614 160.137 13.7174C160.251 13.9591 160.343 14.2365 160.414 14.5494C160.784 13.8809 161.289 13.3903 161.929 13.0774C162.583 12.7645 163.294 12.608 164.062 12.608C165.171 12.608 165.961 12.9494 166.43 13.632C166.899 14.3005 167.134 15.1965 167.134 16.32V23.4667H163.742Z" fill="#F0AA41"/>
<circle cx="31.5515" cy="10.4" r="2.8" fill="#F0AA41"/>
<circle cx="18.7515" cy="22" r="2" stroke="black" stroke-width="1.6"/>
<circle cx="5.95155" cy="10.4" r="2.8" fill="#F0AA41"/>
<rect x="8.33722" y="14.8" width="7.17128" height="7.17128" rx="2" transform="rotate(30 8.33722 14.8)" fill="#BF852D"/>
<rect width="7.17128" height="7.17128" rx="2" transform="matrix(-0.866025 0.5 0.5 0.866025 29.3619 14.8)" fill="#BF852D"/>
<circle cx="18.7516" cy="3.6" r="3.6" fill="#F0AA41"/>
<path d="M6.27932 27.7089L0.125954 17.8035C-0.320845 17.0842 0.509829 16.2546 1.22851 16.7023L9.85321 22.0751C10.221 22.3042 10.7045 22.1988 10.9435 21.8373L18.0625 11.072C18.3746 10.6 19.0647 10.5923 19.3872 11.0573L26.8768 21.8563C27.1212 22.2087 27.5999 22.3057 27.9622 22.0762L36.2881 16.8031C37.0102 16.3458 37.85 17.1874 37.3911 17.9085L31.1498 27.7162C31.003 27.947 30.7484 28.0867 30.4749 28.0867H6.95887C6.68226 28.0867 6.42528 27.9438 6.27932 27.7089Z" fill="#F0AA41"/>
<path fill-rule="evenodd" clip-rule="evenodd" d="M7.15155 31.2C7.15155 30.7582 7.50972 30.4 7.95155 30.4H29.7516C30.1934 30.4 30.5516 30.7582 30.5516 31.2C30.5516 31.6419 30.1934 32 29.7516 32H7.95155C7.50972 32 7.15155 31.6419 7.15155 31.2Z" fill="#F0AA41"/>
</svg>
